<svg xmlns="http://www.w3.org/2000/svg" width="100%" viewBox="0 0 123 35" fill="none">
  <path d="M86.1256 25.588H80.5568C80.2384 19.2468 79.9232 12.9742 79.6066 6.66203C79.8541 6.50073 80.1017 6.33637 80.4691 6.09441H76.67C76.919 12.0475 77.1666 17.9397 77.4203 24.0053L71.7776 20.7077C71.65 16.0374 71.5223 11.3977 71.3947 6.76094L72.2912 6.22681H68.4705C68.5935 12.6348 68.7165 19.0094 68.8395 25.4251H63.2799V3.1955L84.665 2.82267C85.1507 10.4055 85.6413 17.9564 86.1256 25.588Z" fill="#ffffff"></path>
  <path d="M103.156 1.97814L117.786 0.989012C118.973 9.55234 120.156 18.0838 121.333 26.5831H115.798C114.884 19.4781 113.984 12.4918 113.082 5.47814L114.044 4.74466L108.801 5.02163C109.655 12.1358 110.493 19.1906 111.346 26.2316H105.811C104.916 18.1086 104.04 10.0799 103.156 1.97814Z" fill="#ffffff"></path>
  <path d="M17.3254 26.1464L1.77365 26.7277C2.26103 23.1957 2.74073 19.7186 3.22197 16.2277H8.65088C8.38182 18.3337 8.11892 20.376 7.86062 22.3937L6.85508 22.9918H12.1579C12.4331 20.697 12.7007 18.4753 12.9682 16.2536L3.86927 11.5803C4.35665 8.04984 4.83942 4.56507 5.33297 0.987459L19.9653 1.97811C19.6041 5.29246 19.2488 8.54137 18.8891 11.7964H13.5079C13.7585 9.6979 13.9983 7.68767 14.2351 5.6942L15.1161 5.19659L15.0915 5.0581L10.1361 4.7979C9.84398 7.08507 9.54572 9.32354 9.22898 11.699L18.4001 16.2641C18.0481 19.5497 17.6853 22.826 17.3254 26.1464Z" fill="#ffffff"></path>
  <path d="M44.3387 2.9659C44.0312 9.3572 43.7237 15.6846 43.4162 22.0728C42.0692 23.1898 40.7055 24.3311 39.3263 25.4558C39.161 25.5701 38.9639 25.6312 38.7621 25.6308C35.1552 25.7138 31.5476 25.7905 27.9396 25.8605C27.8484 25.842 27.7589 25.8161 27.6722 25.7828C28.3394 18.0539 29.0082 10.3007 29.6847 2.46981L44.3387 2.9659ZM34.6985 5.90437C34.2998 11.3015 33.9071 16.6483 33.5207 21.9451L32.6168 22.5019H37.8719C38.2086 17.1378 38.5391 11.8498 38.8712 6.56481L39.7508 6.05198L39.6953 5.89981L34.6985 5.90437Z" fill="#ffffff"></path>
  <path d="M86.5857 2.73902L101.233 2.08315C101.578 5.37923 101.916 8.60685 102.264 11.9197H96.8823C96.705 10.052 96.5256 8.15083 96.3443 6.21619L97.1129 5.66989H92.0992C92.3143 8.27206 92.5174 10.7464 92.7234 13.2497H95.5093L97.3543 14.8505C97.3543 14.9084 97.3374 14.9662 97.3297 15.0255H92.8678C93.0616 17.4513 93.2431 19.7337 93.4245 22.0119L92.6557 22.45V22.5826H97.854C97.6727 20.5357 97.4882 18.4403 97.2958 16.2826H102.719C103.057 19.507 103.397 22.7347 103.747 26.0794L88.1739 25.699L86.5857 2.73902Z" fill="#ffffff"></path>
  <path d="M46.5808 3.10582H61.1869V12.2363H55.9364V6.8143L56.9188 6.22692H51.7022V13.3913H54.2775C54.8817 13.9497 55.4475 14.4717 56.1518 15.1245H51.4409V21.7456L50.28 22.3816H55.7366V16.354H61.1855V25.451H45.6367C45.9524 17.9966 46.267 10.5481 46.5808 3.10582Z" fill="#ffffff"></path>
  <path d="M121.71 29.3557C121.899 30.6919 122.077 31.9427 122.246 33.186C122.258 33.3166 122.258 33.448 122.246 33.5786L74.0089 31.4344L72.4837 29.7149L74.0857 27.796C89.945 27.9619 105.781 28.4914 121.71 29.3557Z" fill="#ffffff"></path>
  <path d="M0.818951 33.5803C1.00038 32.273 1.1941 30.8762 1.40474 29.3696C17.241 28.493 33.0849 27.9803 49.0289 27.8006L50.6279 29.7136L49.1134 31.4437L0.818951 33.5803Z" fill="#ffffff"></path>
  <path d="M25.2776 25.973H19.7226C20.5452 18.0598 21.3708 10.124 22.2072 2.0816L27.447 2.34333C26.7229 10.2244 26.0079 18.0264 25.2776 25.973Z" fill="#ffffff"></path>
  <path d="M71.2889 32.4341H68.7291L67.5314 30.9901L66.4212 32.3901H63.8259L66.0814 29.6007L63.9628 26.9437H66.4966C66.7887 27.312 67.1301 27.7397 67.5005 28.2084L68.4692 26.9407H71.0292C70.2912 27.8903 69.6361 28.7348 68.9582 29.6098L71.2889 32.4341Z" fill="#ffffff"></path>
  <path d="M57.0422 29.5962C57.7864 30.5184 58.4845 31.3858 59.2624 32.3521H56.6825L55.5801 30.9962L54.4055 32.4129H51.8578L54.164 29.6115L52.1361 26.9728H54.6699L55.6339 28.1901L56.6472 26.9104H59.1747L57.0422 29.5962Z" fill="#ffffff"></path>
  <path d="M60.5375 26.9195H62.6053V32.3568H60.5375V26.9195Z" fill="#ffffff"></path>
</svg>
