<svg xmlns="http://www.w3.org/2000/svg" width="100%" viewBox="0 0 58 18" fill="none">
  <g clip-path="url(#clip0_54_20)">
    <path d="M44.3845 4.37153C45.6546 3.12572 46.8566 1.97052 48.0209 0.785117C48.4518 0.347197 48.8978 0.165989 49.5177 0.17354C51.952 0.203741 54.3863 0.18109 56.8206 0.18864C57.1079 0.18864 57.4028 0.218842 57.743 0.233942C57.743 0.717164 57.3876 0.905922 57.1457 1.13998C54.7492 3.50324 52.3452 5.85139 49.9411 8.21465C49.684 8.47136 49.4346 8.72807 49.2834 8.87153C50.7273 10.3967 52.1032 11.8841 53.5245 13.3338C54.9307 14.7683 56.3973 16.1425 57.9924 17.7356C57.4406 17.7885 57.1608 17.8413 56.8736 17.8413C54.409 17.8489 51.9369 17.8262 49.4724 17.8564C48.8525 17.864 48.4064 17.6526 47.9831 17.2146C47.0305 16.2331 46.0401 15.2969 45.0649 14.338C44.8532 14.1341 44.634 13.9454 44.3618 13.6962C43.689 14.338 43.0464 14.9571 42.3131 15.6593C40.7482 14.1266 39.2135 12.624 37.5579 11.0007C38.2988 10.4042 38.9943 9.84552 39.8032 9.18864C36.7036 6.14586 33.8081 3.29183 30.7615 0.294345C31.2529 0.233942 31.5024 0.18109 31.7443 0.18109C34.2769 0.17354 36.8094 0.18864 39.342 0.165989C39.8939 0.158439 40.2795 0.347197 40.6575 0.724714C41.8671 1.92522 43.0842 3.10307 44.3845 4.37153Z" fill="#FFFFFF"></path>
    <path d="M13.7213 4.43948C14.3186 3.71465 14.8931 3.02002 15.5357 2.24233C17.2291 3.89586 18.7638 5.39837 20.3816 6.9915C19.7088 7.67103 19.0662 8.32035 18.3556 9.03764C21.2813 11.9068 24.1616 14.7306 27.1856 17.6903C26.7698 17.7658 26.5581 17.8413 26.354 17.8413C23.7534 17.8489 21.1603 17.8338 18.5597 17.8564C18.0456 17.8564 17.6827 17.6752 17.3274 17.3204C16.1254 16.1199 14.9082 14.942 13.6533 13.7113C13.4265 13.9001 13.2148 14.0511 13.0334 14.2247C11.9825 15.244 10.9317 16.2709 9.89598 17.3053C9.57847 17.6224 9.26095 17.8489 8.77711 17.8489C6.07821 17.8338 3.3793 17.8413 0.680396 17.8338C0.529197 17.8338 0.385558 17.7658 0.0302398 17.6903C3.03154 14.7457 5.91189 11.9143 8.86027 9.02254C5.92701 6.13076 3.0391 3.29183 0 0.309448C0.453597 0.249046 0.703076 0.188643 0.944995 0.188643C3.47758 0.181093 6.01017 0.196193 8.54275 0.173542C9.13243 0.165992 9.54823 0.369851 9.94891 0.770019C10.909 1.74401 11.8918 2.6878 12.867 3.63915C13.1014 3.86566 13.3509 4.09217 13.7213 4.43948Z" fill="#FFFFFF"></path>
    <path d="M42.5248 17.9169C42.0712 17.9471 41.8217 17.9849 41.5722 17.9849C38.9716 17.9924 36.371 17.9773 33.7703 18C33.226 18.0076 32.8329 17.8414 32.4549 17.4564C26.8983 11.8767 21.3418 6.31963 15.7852 0.755034C15.6264 0.596477 15.5055 0.407718 15.2711 0.120805C15.6416 0.0755034 15.891 0.0151007 16.133 0.0151007C18.7714 0.00755034 21.4098 0.022651 24.0407 0C24.5547 0 24.9176 0.173658 25.2729 0.528523C30.8673 6.14597 36.4768 11.7559 42.0787 17.3658C42.1921 17.479 42.2828 17.6149 42.5248 17.9169Z" fill="#FFFFFF"></path>
  </g>
  <defs>
    <clipPath id="clip0_54_20">
      <rect width="58" height="18" fill="currentColor"></rect>
    </clipPath>
  </defs>
</svg>
